<?xml version="1.0" encoding="UTF-8"?>
<svg id="Layer_1" xmlns="http://www.w3.org/2000/svg" version="1.1" viewBox="0 0 1920 1080">
  <!-- Generator: Adobe Illustrator 29.4.0, SVG Export Plug-In . SVG Version: 2.1.0 Build 152)  -->
  <defs>
    <style>
      .st0 {
        fill: #ffe3b4;
      }

      .st1, .st2 {
        fill: #fff;
      }

      .st2 {
        stroke: #ffe3b4;
        stroke-miterlimit: 10;
        stroke-width: 10px;
      }
    </style>
  </defs>
  <path class="st1" d="M1238.3,379.3v475.1c0,16.5-13.5,30-30,30h-470.7c-16.5,0-30-13.5-30-30V186.8c0-16.5,13.5-30,30-30h270.1"/>
  <path class="st2" d="M1238.3,377.9h-182.3c-27.4,0-49.6-22.2-49.6-49.6v-171.5"/>
  <g>
    <path class="st0" d="M803.4,537.8l128.3,83.2h0s0,0,0,0c20.8,13,39.9,32.2,55.3,55.4,19.4,29.2,30.4,61.2,31.2,90.1.7,27.2-7.9,48.1-24.1,58.9-7.9,5.2-17.3,7.9-27.9,7.9-16.7,0-35.5-6.5-54.1-18.8-19.7-13-37.8-31.5-52.5-53.5-15.4-23.2-25.6-48.3-29.5-72.5h0c0,0,0-.2,0-.2l-26.8-150.5M789.6,516.9l30.8,173.2c4,24.6,14.3,51.3,31.1,76.5,31.8,47.9,77.4,76.8,114.9,76.8s23.7-3.1,33.4-9.6c39.8-26.4,37.9-99.3-4.3-162.8-16.7-25.2-37.2-45.1-58.4-58.3l-147.6-95.7h0Z"/>
    <path class="st0" d="M1141.1,549.6l-37,148.3h0c0,0,0,.2,0,.2-5.5,23.9-17.4,48.2-34.4,70.3-30.3,39.5-72.2,65-106.8,65s-23.2-3.3-31.8-9.9c-15.5-11.9-22.6-33.3-20-60.4,2.7-28.8,16-59.9,37.3-87.7,17-22.1,37.4-39.9,59-51.5h0s0,0,0,0l133.7-74.2M1156.4,529.6l-153.8,85.4c-22,11.8-43.8,30.2-62.2,54.2-46.4,60.5-53.3,133.1-15.4,162.2,10.6,8.2,23.7,12,37.9,12,36.6,0,81.3-25.4,114.7-68.9,18.4-24,30.6-49.8,36.2-74.1l42.6-170.7h0Z"/>
    <path class="st0" d="M961.5,489.8l60.7,140.3h0c0,0,0,.1,0,.1,10.1,22.4,15.4,48.9,15.4,76.8,0,35-8.6,67.7-23.9,92.2-14.5,23-33.2,35.7-52.7,35.7h0c-19.5,0-38.2-12.8-52.6-35.8-15.3-24.5-23.7-57.3-23.6-92.3,0-27.9,5.5-54.4,15.6-76.7h0c0,0,0-.1,0-.1l61.1-140.1M961.6,464.7l-70.4,161.2c-10.4,22.7-16.5,50.6-16.5,80.8-.1,76.2,38.5,138.1,86.2,138.2,0,0,0,0,0,0,47.7,0,86.5-61.7,86.6-137.9,0-30.2-6-58.2-16.2-80.9l-69.8-161.5h0Z"/>
  </g>
</svg>